<svg xmlns="http://www.w3.org/2000/svg" viewBox="0 0 128 128">
  <defs>
    <linearGradient id="grad1" x1="0%" y1="0%" x2="100%" y2="100%">
      <stop offset="0%" style="stop-color:#94BA33;stop-opacity:1" />
      <stop offset="100%" style="stop-color:#7a9b2a;stop-opacity:1" />
    </linearGradient>
    <linearGradient id="grad2" x1="0%" y1="0%" x2="100%" y2="100%">
      <stop offset="0%" style="stop-color:#b5d957;stop-opacity:1" />
      <stop offset="100%" style="stop-color:#94BA33;stop-opacity:1" />
    </linearGradient>
  </defs>

  <!-- Background -->
  <rect width="128" height="128" rx="26" fill="url(#grad1)"/>

  <!-- Modern code bracket design -->
  <g transform="translate(64, 64)">
    <!-- Left bracket -->
    <path d="M -28 -20 L -35 -20 Q -40 -20 -40 -15 L -40 15 Q -40 20 -35 20 L -28 20"
          stroke="white" stroke-width="4.5" fill="none" stroke-linecap="round" opacity="0.95"/>

    <!-- Right bracket -->
    <path d="M 28 -20 L 35 -20 Q 40 -20 40 -15 L 40 15 Q 40 20 35 20 L 28 20"
          stroke="white" stroke-width="4.5" fill="none" stroke-linecap="round" opacity="0.95"/>

    <!-- AI spark/star element in center -->
    <circle cx="0" cy="0" r="6" fill="url(#grad2)" opacity="0.9"/>
    <circle cx="0" cy="0" r="3.5" fill="white"/>

    <!-- Subtle glow lines radiating from center -->
    <line x1="0" y1="-12" x2="0" y2="-18" stroke="white" stroke-width="2" stroke-linecap="round" opacity="0.7"/>
    <line x1="0" y1="12" x2="0" y2="18" stroke="white" stroke-width="2" stroke-linecap="round" opacity="0.7"/>
    <line x1="-12" y1="0" x2="-18" y2="0" stroke="white" stroke-width="2" stroke-linecap="round" opacity="0.7"/>
    <line x1="12" y1="0" x2="18" y2="0" stroke="white" stroke-width="2" stroke-linecap="round" opacity="0.7"/>
  </g>
</svg>